<svg width="570" height="153" viewBox="0 0 570 153" fill="none" xmlns="http://www.w3.org/2000/svg">
<g clip-path="url(#clip0_11_474)">
<path d="M17.0169 29.21C15.0769 29.21 13.2869 28.76 11.6469 27.86C10.0269 26.94 8.73693 25.67 7.77693 24.05C6.83693 22.41 6.36693 20.57 6.36693 18.53C6.36693 16.49 6.83693 14.66 7.77693 13.04C8.73693 11.42 10.0269 10.16 11.6469 9.26C13.2869 8.34 15.0769 7.88 17.0169 7.88C18.9769 7.88 20.7669 8.34 22.3869 9.26C24.0269 10.16 25.3169 11.42 26.2569 13.04C27.1969 14.66 27.6669 16.49 27.6669 18.53C27.6669 20.57 27.1969 22.41 26.2569 24.05C25.3169 25.67 24.0269 26.94 22.3869 27.86C20.7669 28.76 18.9769 29.21 17.0169 29.21ZM17.0169 26.24C18.3969 26.24 19.6269 25.93 20.7069 25.31C21.7869 24.67 22.6269 23.77 23.2269 22.61C23.8469 21.43 24.1569 20.07 24.1569 18.53C24.1569 16.99 23.8469 15.64 23.2269 14.48C22.6269 13.32 21.7869 12.43 20.7069 11.81C19.6269 11.19 18.3969 10.88 17.0169 10.88C15.6369 10.88 14.4069 11.19 13.3269 11.81C12.2469 12.43 11.3969 13.32 10.7769 14.48C10.1769 15.64 9.87693 16.99 9.87693 18.53C9.87693 20.07 10.1769 21.43 10.7769 22.61C11.3969 23.77 12.2469 24.67 13.3269 25.31C14.4069 25.93 15.6369 26.24 17.0169 26.24ZM30.1173 20.66C30.1173 19 30.4573 17.53 31.1373 16.25C31.8373 14.97 32.7773 13.98 33.9573 13.28C35.1573 12.56 36.4873 12.2 37.9473 12.2C39.0273 12.2 40.0873 12.44 41.1273 12.92C42.1873 13.38 43.0273 14 43.6473 14.78V6.8H47.0973V29H43.6473V26.51C43.0873 27.31 42.3073 27.97 41.3073 28.49C40.3273 29.01 39.1973 29.27 37.9173 29.27C36.4773 29.27 35.1573 28.91 33.9573 28.19C32.7773 27.45 31.8373 26.43 31.1373 25.13C30.4573 23.81 30.1173 22.32 30.1173 20.66ZM43.6473 20.72C43.6473 19.58 43.4073 18.59 42.9273 17.75C42.4673 16.91 41.8573 16.27 41.0973 15.83C40.3373 15.39 39.5173 15.17 38.6373 15.17C37.7573 15.17 36.9373 15.39 36.1773 15.83C35.4173 16.25 34.7973 16.88 34.3173 17.72C33.8573 18.54 33.6273 19.52 33.6273 20.66C33.6273 21.8 33.8573 22.8 34.3173 23.66C34.7973 24.52 35.4173 25.18 36.1773 25.64C36.9573 26.08 37.7773 26.3 38.6373 26.3C39.5173 26.3 40.3373 26.08 41.0973 25.64C41.8573 25.2 42.4673 24.56 42.9273 23.72C43.4073 22.86 43.6473 21.86 43.6473 20.72ZM58.3543 20.75L65.9743 29H61.3543L55.2343 21.89V29H51.8143V6.8H55.2343V19.7L61.2343 12.47H65.9743L58.3543 20.75ZM72.0707 14.87C72.5707 14.03 73.2307 13.38 74.0507 12.92C74.8907 12.44 75.8807 12.2 77.0207 12.2V15.74H76.1507C74.8107 15.74 73.7907 16.08 73.0907 16.76C72.4107 17.44 72.0707 18.62 72.0707 20.3V29H68.6507V12.47H72.0707V14.87ZM95.2693 12.47L85.1293 36.77H81.5893L84.9493 28.73L78.4393 12.47H82.2493L86.8993 25.07L91.7293 12.47H95.2693ZM99.8153 10.28C99.1953 10.28 98.6753 10.07 98.2553 9.65C97.8353 9.23 97.6253 8.71 97.6253 8.09C97.6253 7.47 97.8353 6.95 98.2553 6.53C98.6753 6.11 99.1953 5.9 99.8153 5.9C100.415 5.9 100.925 6.11 101.345 6.53C101.765 6.95 101.975 7.47 101.975 8.09C101.975 8.71 101.765 9.23 101.345 9.65C100.925 10.07 100.415 10.28 99.8153 10.28ZM101.495 32.24C101.495 33.86 101.085 35.03 100.265 35.75C99.4653 36.49 98.2953 36.86 96.7553 36.86H94.9853V33.98H96.1553C96.8553 33.98 97.3453 33.84 97.6253 33.56C97.9253 33.3 98.0753 32.86 98.0753 32.24V12.47H101.495V32.24ZM122.568 12.2C123.868 12.2 125.028 12.47 126.048 13.01C127.088 13.55 127.898 14.35 128.478 15.41C129.058 16.47 129.348 17.75 129.348 19.25V29H125.958V19.76C125.958 18.28 125.588 17.15 124.848 16.37C124.108 15.57 123.098 15.17 121.818 15.17C120.538 15.17 119.518 15.57 118.758 16.37C118.018 17.15 117.648 18.28 117.648 19.76V29H114.228V12.47H117.648V14.36C118.208 13.68 118.918 13.15 119.778 12.77C120.658 12.39 121.588 12.2 122.568 12.2ZM141.106 29.27C139.546 29.27 138.136 28.92 136.876 28.22C135.616 27.5 134.626 26.5 133.906 25.22C133.186 23.92 132.826 22.42 132.826 20.72C132.826 19.04 133.196 17.55 133.936 16.25C134.676 14.95 135.686 13.95 136.966 13.25C138.246 12.55 139.676 12.2 141.256 12.2C142.836 12.2 144.266 12.55 145.546 13.25C146.826 13.95 147.836 14.95 148.576 16.25C149.316 17.55 149.686 19.04 149.686 20.72C149.686 22.4 149.306 23.89 148.546 25.19C147.786 26.49 146.746 27.5 145.426 28.22C144.126 28.92 142.686 29.27 141.106 29.27ZM141.106 26.3C141.986 26.3 142.806 26.09 143.566 25.67C144.346 25.25 144.976 24.62 145.456 23.78C145.936 22.94 146.176 21.92 146.176 20.72C146.176 19.52 145.946 18.51 145.486 17.69C145.026 16.85 144.416 16.22 143.656 15.8C142.896 15.38 142.076 15.17 141.196 15.17C140.316 15.17 139.496 15.38 138.736 15.8C137.996 16.22 137.406 16.85 136.966 17.69C136.526 18.51 136.306 19.52 136.306 20.72C136.306 22.5 136.756 23.88 137.656 24.86C138.576 25.82 139.726 26.3 141.106 26.3ZM175.492 12.47L170.362 29H166.762L163.432 16.79L160.102 29H156.502L151.342 12.47H154.822L158.272 25.76L161.782 12.47H165.352L168.712 25.7L172.132 12.47H175.492ZM193.423 20.33C193.423 20.95 193.383 21.51 193.303 22.01H180.673C180.773 23.33 181.263 24.39 182.143 25.19C183.023 25.99 184.103 26.39 185.383 26.39C187.223 26.39 188.523 25.62 189.283 24.08H192.973C192.473 25.6 191.563 26.85 190.243 27.83C188.943 28.79 187.323 29.27 185.383 29.27C183.803 29.27 182.383 28.92 181.123 28.22C179.883 27.5 178.903 26.5 178.183 25.22C177.483 23.92 177.133 22.42 177.133 20.72C177.133 19.02 177.473 17.53 178.153 16.25C178.853 14.95 179.823 13.95 181.063 13.25C182.323 12.55 183.763 12.2 185.383 12.2C186.943 12.2 188.333 12.54 189.553 13.22C190.773 13.9 191.723 14.86 192.403 16.1C193.083 17.32 193.423 18.73 193.423 20.33ZM189.853 19.25C189.833 17.99 189.383 16.98 188.503 16.22C187.623 15.46 186.533 15.08 185.233 15.08C184.053 15.08 183.043 15.46 182.203 16.22C181.363 16.96 180.863 17.97 180.703 19.25H189.853ZM225.041 12.2C226.341 12.2 227.501 12.47 228.521 13.01C229.561 13.55 230.371 14.35 230.951 15.41C231.551 16.47 231.851 17.75 231.851 19.25V29H228.461V19.76C228.461 18.28 228.091 17.15 227.351 16.37C226.611 15.57 225.601 15.17 224.321 15.17C223.041 15.17 222.021 15.57 221.261 16.37C220.521 17.15 220.151 18.28 220.151 19.76V29H216.761V19.76C216.761 18.28 216.391 17.15 215.651 16.37C214.911 15.57 213.901 15.17 212.621 15.17C211.341 15.17 210.321 15.57 209.561 16.37C208.821 17.15 208.451 18.28 208.451 19.76V29H205.031V12.47H208.451V14.36C209.011 13.68 209.721 13.15 210.581 12.77C211.441 12.39 212.361 12.2 213.341 12.2C214.661 12.2 215.841 12.48 216.881 13.04C217.921 13.6 218.721 14.41 219.281 15.47C219.781 14.47 220.561 13.68 221.621 13.1C222.681 12.5 223.821 12.2 225.041 12.2ZM243.598 29.27C242.038 29.27 240.628 28.92 239.368 28.22C238.108 27.5 237.118 26.5 236.398 25.22C235.678 23.92 235.318 22.42 235.318 20.72C235.318 19.04 235.688 17.55 236.428 16.25C237.168 14.95 238.178 13.95 239.458 13.25C240.738 12.55 242.168 12.2 243.748 12.2C245.328 12.2 246.758 12.55 248.038 13.25C249.318 13.95 250.328 14.95 251.068 16.25C251.808 17.55 252.178 19.04 252.178 20.72C252.178 22.4 251.798 23.89 251.038 25.19C250.278 26.49 249.238 27.5 247.918 28.22C246.618 28.92 245.178 29.27 243.598 29.27ZM243.598 26.3C244.478 26.3 245.298 26.09 246.058 25.67C246.838 25.25 247.468 24.62 247.948 23.78C248.428 22.94 248.668 21.92 248.668 20.72C248.668 19.52 248.438 18.51 247.978 17.69C247.518 16.85 246.908 16.22 246.148 15.8C245.388 15.38 244.568 15.17 243.688 15.17C242.808 15.17 241.988 15.38 241.228 15.8C240.488 16.22 239.898 16.85 239.458 17.69C239.018 18.51 238.798 19.52 238.798 20.72C238.798 22.5 239.248 23.88 240.148 24.86C241.068 25.82 242.218 26.3 243.598 26.3ZM258.814 26.21H266.314V29H254.854V26.21L262.384 15.26H254.854V12.47H266.314V15.26L258.814 26.21ZM260.614 10.4C260.114 10.4 259.684 10.23 259.324 9.89C258.984 9.53 258.814 9.1 258.814 8.6C258.814 8.1 258.984 7.68 259.324 7.34C259.684 6.98 260.114 6.8 260.614 6.8C261.114 6.8 261.534 6.98 261.874 7.34C262.234 7.68 262.414 8.1 262.414 8.6C262.414 9.1 262.234 9.53 261.874 9.89C261.534 10.23 261.114 10.4 260.614 10.4ZM273.55 6.8V29H270.13V6.8H273.55ZM280.005 10.28C279.385 10.28 278.865 10.07 278.445 9.65C278.025 9.23 277.815 8.71 277.815 8.09C277.815 7.47 278.025 6.95 278.445 6.53C278.865 6.11 279.385 5.9 280.005 5.9C280.605 5.9 281.115 6.11 281.535 6.53C281.955 6.95 282.165 7.47 282.165 8.09C282.165 8.71 281.955 9.23 281.535 9.65C281.115 10.07 280.605 10.28 280.005 10.28ZM281.685 12.47V29H278.265V12.47H281.685ZM308.6 12.47L303.47 29H299.87L296.54 16.79L293.21 29H289.61L284.45 12.47H287.93L291.38 25.76L294.89 12.47H298.46L301.82 25.7L305.24 12.47H308.6ZM318.551 29.27C316.991 29.27 315.581 28.92 314.321 28.22C313.061 27.5 312.071 26.5 311.351 25.22C310.631 23.92 310.271 22.42 310.271 20.72C310.271 19.04 310.641 17.55 311.381 16.25C312.121 14.95 313.131 13.95 314.411 13.25C315.691 12.55 317.121 12.2 318.701 12.2C320.281 12.2 321.711 12.55 322.991 13.25C324.271 13.95 325.281 14.95 326.021 16.25C326.761 17.55 327.131 19.04 327.131 20.72C327.131 22.4 326.751 23.89 325.991 25.19C325.231 26.49 324.191 27.5 322.871 28.22C321.571 28.92 320.131 29.27 318.551 29.27ZM318.551 26.3C319.431 26.3 320.251 26.09 321.011 25.67C321.791 25.25 322.421 24.62 322.901 23.78C323.381 22.94 323.621 21.92 323.621 20.72C323.621 19.52 323.391 18.51 322.931 17.69C322.471 16.85 321.861 16.22 321.101 15.8C320.341 15.38 319.521 15.17 318.641 15.17C317.761 15.17 316.941 15.38 316.181 15.8C315.441 16.22 314.851 16.85 314.411 17.69C313.971 18.51 313.751 19.52 313.751 20.72C313.751 22.5 314.201 23.88 315.101 24.86C316.021 25.82 317.171 26.3 318.551 26.3ZM336.737 29.27C335.437 29.27 334.267 29.04 333.227 28.58C332.207 28.1 331.397 27.46 330.797 26.66C330.197 25.84 329.877 24.93 329.837 23.93H333.377C333.437 24.63 333.767 25.22 334.367 25.7C334.987 26.16 335.757 26.39 336.677 26.39C337.637 26.39 338.377 26.21 338.897 25.85C339.437 25.47 339.707 24.99 339.707 24.41C339.707 23.79 339.407 23.33 338.807 23.03C338.227 22.73 337.297 22.4 336.017 22.04C334.777 21.7 333.767 21.37 332.987 21.05C332.207 20.73 331.527 20.24 330.947 19.58C330.387 18.92 330.107 18.05 330.107 16.97C330.107 16.09 330.367 15.29 330.887 14.57C331.407 13.83 332.147 13.25 333.107 12.83C334.087 12.41 335.207 12.2 336.467 12.2C338.347 12.2 339.857 12.68 340.997 13.64C342.157 14.58 342.777 15.87 342.857 17.51H339.437C339.377 16.77 339.077 16.18 338.537 15.74C337.997 15.3 337.267 15.08 336.347 15.08C335.447 15.08 334.757 15.25 334.277 15.59C333.797 15.93 333.557 16.38 333.557 16.94C333.557 17.38 333.717 17.75 334.037 18.05C334.357 18.35 334.747 18.59 335.207 18.77C335.667 18.93 336.347 19.14 337.247 19.4C338.447 19.72 339.427 20.05 340.187 20.39C340.967 20.71 341.637 21.19 342.197 21.83C342.757 22.47 343.047 23.32 343.067 24.38C343.067 25.32 342.807 26.16 342.287 26.9C341.767 27.64 341.027 28.22 340.067 28.64C339.127 29.06 338.017 29.27 336.737 29.27ZM345.847 20.72C345.847 19.02 346.187 17.53 346.867 16.25C347.567 14.95 348.527 13.95 349.747 13.25C350.967 12.55 352.367 12.2 353.947 12.2C355.947 12.2 357.597 12.68 358.897 13.64C360.217 14.58 361.107 15.93 361.567 17.69H357.877C357.577 16.87 357.097 16.23 356.437 15.77C355.777 15.31 354.947 15.08 353.947 15.08C352.547 15.08 351.427 15.58 350.587 16.58C349.767 17.56 349.357 18.94 349.357 20.72C349.357 22.5 349.767 23.89 350.587 24.89C351.427 25.89 352.547 26.39 353.947 26.39C355.927 26.39 357.237 25.52 357.877 23.78H361.567C361.087 25.46 360.187 26.8 358.867 27.8C357.547 28.78 355.907 29.27 353.947 29.27C352.367 29.27 350.967 28.92 349.747 28.22C348.527 27.5 347.567 26.5 346.867 25.22C346.187 23.92 345.847 22.42 345.847 20.72ZM366.941 10.28C366.321 10.28 365.801 10.07 365.381 9.65C364.961 9.23 364.751 8.71 364.751 8.09C364.751 7.47 364.961 6.95 365.381 6.53C365.801 6.11 366.321 5.9 366.941 5.9C367.541 5.9 368.051 6.11 368.471 6.53C368.891 6.95 369.101 7.47 369.101 8.09C369.101 8.71 368.891 9.23 368.471 9.65C368.051 10.07 367.541 10.28 366.941 10.28ZM368.621 12.47V29H365.201V12.47H368.621ZM384.384 26.21H391.884V29H380.424V26.21L387.954 15.26H380.424V12.47H391.884V15.26L384.384 26.21ZM409.718 29.27C408.418 29.27 407.248 29.04 406.208 28.58C405.188 28.1 404.378 27.46 403.778 26.66C403.178 25.84 402.858 24.93 402.818 23.93H406.358C406.418 24.63 406.748 25.22 407.348 25.7C407.968 26.16 408.738 26.39 409.658 26.39C410.618 26.39 411.358 26.21 411.878 25.85C412.418 25.47 412.688 24.99 412.688 24.41C412.688 23.79 412.388 23.33 411.788 23.03C411.208 22.73 410.278 22.4 408.998 22.04C407.758 21.7 406.748 21.37 405.968 21.05C405.188 20.73 404.508 20.24 403.928 19.58C403.368 18.92 403.088 18.05 403.088 16.97C403.088 16.09 403.348 15.29 403.868 14.57C404.388 13.83 405.128 13.25 406.088 12.83C407.068 12.41 408.188 12.2 409.448 12.2C411.328 12.2 412.838 12.68 413.978 13.64C415.138 14.58 415.758 15.87 415.838 17.51H412.418C412.358 16.77 412.058 16.18 411.518 15.74C410.978 15.3 410.248 15.08 409.328 15.08C408.428 15.08 407.738 15.25 407.258 15.59C406.778 15.93 406.538 16.38 406.538 16.94C406.538 17.38 406.698 17.75 407.018 18.05C407.338 18.35 407.728 18.59 408.188 18.77C408.648 18.93 409.328 19.14 410.228 19.4C411.428 19.72 412.408 20.05 413.168 20.39C413.948 20.71 414.618 21.19 415.178 21.83C415.738 22.47 416.028 23.32 416.048 24.38C416.048 25.32 415.788 26.16 415.268 26.9C414.748 27.64 414.008 28.22 413.048 28.64C412.108 29.06 410.998 29.27 409.718 29.27ZM434.848 12.47L424.708 36.77H421.168L424.528 28.73L418.018 12.47H421.828L426.478 25.07L431.308 12.47H434.848ZM443.654 29.27C442.354 29.27 441.184 29.04 440.144 28.58C439.124 28.1 438.314 27.46 437.714 26.66C437.114 25.84 436.794 24.93 436.754 23.93H440.294C440.354 24.63 440.684 25.22 441.284 25.7C441.904 26.16 442.674 26.39 443.594 26.39C444.554 26.39 445.294 26.21 445.814 25.85C446.354 25.47 446.624 24.99 446.624 24.41C446.624 23.79 446.324 23.33 445.724 23.03C445.144 22.73 444.214 22.4 442.934 22.04C441.694 21.7 440.684 21.37 439.904 21.05C439.124 20.73 438.444 20.24 437.864 19.58C437.304 18.92 437.024 18.05 437.024 16.97C437.024 16.09 437.284 15.29 437.804 14.57C438.324 13.83 439.064 13.25 440.024 12.83C441.004 12.41 442.124 12.2 443.384 12.2C445.264 12.2 446.774 12.68 447.914 13.64C449.074 14.58 449.694 15.87 449.774 17.51H446.354C446.294 16.77 445.994 16.18 445.454 15.74C444.914 15.3 444.184 15.08 443.264 15.08C442.364 15.08 441.674 15.25 441.194 15.59C440.714 15.93 440.474 16.38 440.474 16.94C440.474 17.38 440.634 17.75 440.954 18.05C441.274 18.35 441.664 18.59 442.124 18.77C442.584 18.93 443.264 19.14 444.164 19.4C445.364 19.72 446.344 20.05 447.104 20.39C447.884 20.71 448.554 21.19 449.114 21.83C449.674 22.47 449.964 23.32 449.984 24.38C449.984 25.32 449.724 26.16 449.204 26.9C448.684 27.64 447.944 28.22 446.984 28.64C446.044 29.06 444.934 29.27 443.654 29.27ZM457.895 15.26V24.41C457.895 25.03 458.035 25.48 458.315 25.76C458.615 26.02 459.115 26.15 459.815 26.15H461.915V29H459.215C457.675 29 456.495 28.64 455.675 27.92C454.855 27.2 454.445 26.03 454.445 24.41V15.26H452.495V12.47H454.445V8.36H457.895V12.47H461.915V15.26H457.895ZM480.442 20.33C480.442 20.95 480.402 21.51 480.322 22.01H467.692C467.792 23.33 468.282 24.39 469.162 25.19C470.042 25.99 471.122 26.39 472.402 26.39C474.242 26.39 475.542 25.62 476.302 24.08H479.992C479.492 25.6 478.582 26.85 477.262 27.83C475.962 28.79 474.342 29.27 472.402 29.27C470.822 29.27 469.402 28.92 468.142 28.22C466.902 27.5 465.922 26.5 465.202 25.22C464.502 23.92 464.152 22.42 464.152 20.72C464.152 19.02 464.492 17.53 465.172 16.25C465.872 14.95 466.842 13.95 468.082 13.25C469.342 12.55 470.782 12.2 472.402 12.2C473.962 12.2 475.352 12.54 476.572 13.22C477.792 13.9 478.742 14.86 479.422 16.1C480.102 17.32 480.442 18.73 480.442 20.33ZM476.872 19.25C476.852 17.99 476.402 16.98 475.522 16.22C474.642 15.46 473.552 15.08 472.252 15.08C471.072 15.08 470.062 15.46 469.222 16.22C468.382 16.96 467.882 17.97 467.722 19.25H476.872ZM504.042 12.2C505.342 12.2 506.502 12.47 507.522 13.01C508.562 13.55 509.372 14.35 509.952 15.41C510.552 16.47 510.852 17.75 510.852 19.25V29H507.462V19.76C507.462 18.28 507.092 17.15 506.352 16.37C505.612 15.57 504.602 15.17 503.322 15.17C502.042 15.17 501.022 15.57 500.262 16.37C499.522 17.15 499.152 18.28 499.152 19.76V29H495.762V19.76C495.762 18.28 495.392 17.15 494.652 16.37C493.912 15.57 492.902 15.17 491.622 15.17C490.342 15.17 489.322 15.57 488.562 16.37C487.822 17.15 487.452 18.28 487.452 19.76V29H484.032V12.47H487.452V14.36C488.012 13.68 488.722 13.15 489.582 12.77C490.442 12.39 491.362 12.2 492.342 12.2C493.662 12.2 494.842 12.48 495.882 13.04C496.922 13.6 497.722 14.41 498.282 15.47C498.782 14.47 499.562 13.68 500.622 13.1C501.682 12.5 502.822 12.2 504.042 12.2ZM530.579 20.33C530.579 20.95 530.539 21.51 530.459 22.01H517.829C517.929 23.33 518.419 24.39 519.299 25.19C520.179 25.99 521.259 26.39 522.539 26.39C524.379 26.39 525.679 25.62 526.439 24.08H530.129C529.629 25.6 528.719 26.85 527.399 27.83C526.099 28.79 524.479 29.27 522.539 29.27C520.959 29.27 519.539 28.92 518.279 28.22C517.039 27.5 516.059 26.5 515.339 25.22C514.639 23.92 514.289 22.42 514.289 20.72C514.289 19.02 514.629 17.53 515.309 16.25C516.009 14.95 516.979 13.95 518.219 13.25C519.479 12.55 520.919 12.2 522.539 12.2C524.099 12.2 525.489 12.54 526.709 13.22C527.929 13.9 528.879 14.86 529.559 16.1C530.239 17.32 530.579 18.73 530.579 20.33ZM527.009 19.25C526.989 17.99 526.539 16.98 525.659 16.22C524.779 15.46 523.689 15.08 522.389 15.08C521.209 15.08 520.199 15.46 519.359 16.22C518.519 16.96 518.019 17.97 517.859 19.25H527.009ZM554.18 12.2C555.48 12.2 556.64 12.47 557.66 13.01C558.7 13.55 559.51 14.35 560.09 15.41C560.69 16.47 560.99 17.75 560.99 19.25V29H557.6V19.76C557.6 18.28 557.23 17.15 556.49 16.37C555.75 15.57 554.74 15.17 553.46 15.17C552.18 15.17 551.16 15.57 550.4 16.37C549.66 17.15 549.29 18.28 549.29 19.76V29H545.9V19.76C545.9 18.28 545.53 17.15 544.79 16.37C544.05 15.57 543.04 15.17 541.76 15.17C540.48 15.17 539.46 15.57 538.7 16.37C537.96 17.15 537.59 18.28 537.59 19.76V29H534.17V12.47H537.59V14.36C538.15 13.68 538.86 13.15 539.72 12.77C540.58 12.39 541.5 12.2 542.48 12.2C543.8 12.2 544.98 12.48 546.02 13.04C547.06 13.6 547.86 14.41 548.42 15.47C548.92 14.47 549.7 13.68 550.76 13.1C551.82 12.5 552.96 12.2 554.18 12.2Z" fill="white"/>
<path d="M82.4148 75.7C82.4148 81.3 81.0648 86.55 78.3648 91.45C75.7648 96.35 71.6148 100.3 65.9148 103.3C60.3148 106.3 53.2148 107.8 44.6148 107.8H27.0648V148H6.06484V43.3H44.6148C52.7148 43.3 59.6148 44.7 65.3148 47.5C71.0148 50.3 75.2648 54.15 78.0648 59.05C80.9648 63.95 82.4148 69.5 82.4148 75.7ZM43.7148 90.85C49.5148 90.85 53.8148 89.55 56.6148 86.95C59.4148 84.25 60.8148 80.5 60.8148 75.7C60.8148 65.5 55.1148 60.4 43.7148 60.4H27.0648V90.85H43.7148ZM121.025 43.3V108.1C121.025 115.2 122.875 120.65 126.575 124.45C130.275 128.15 135.475 130 142.175 130C148.975 130 154.225 128.15 157.925 124.45C161.625 120.65 163.475 115.2 163.475 108.1V43.3H184.625V107.95C184.625 116.85 182.675 124.4 178.775 130.6C174.975 136.7 169.825 141.3 163.325 144.4C156.925 147.5 149.775 149.05 141.875 149.05C134.075 149.05 126.975 147.5 120.575 144.4C114.275 141.3 109.275 136.7 105.575 130.6C101.875 124.4 100.025 116.85 100.025 107.95V43.3H121.025ZM228.914 131.35H263.414V148H207.914V43.3H228.914V131.35ZM315.912 149.05C308.612 149.05 302.012 147.8 296.112 145.3C290.312 142.8 285.712 139.2 282.312 134.5C278.912 129.8 277.162 124.25 277.062 117.85H299.562C299.862 122.15 301.362 125.55 304.062 128.05C306.862 130.55 310.662 131.8 315.462 131.8C320.362 131.8 324.212 130.65 327.012 128.35C329.812 125.95 331.212 122.85 331.212 119.05C331.212 115.95 330.262 113.4 328.362 111.4C326.462 109.4 324.062 107.85 321.162 106.75C318.362 105.55 314.462 104.25 309.462 102.85C302.662 100.85 297.112 98.9 292.812 97C288.612 95 284.962 92.05 281.862 88.15C278.862 84.15 277.362 78.85 277.362 72.25C277.362 66.05 278.912 60.65 282.012 56.05C285.112 51.45 289.462 47.95 295.062 45.55C300.662 43.05 307.062 41.8 314.262 41.8C325.062 41.8 333.812 44.45 340.512 49.75C347.312 54.95 351.062 62.25 351.762 71.65H328.662C328.462 68.05 326.912 65.1 324.012 62.8C321.212 60.4 317.462 59.2 312.762 59.2C308.662 59.2 305.362 60.25 302.862 62.35C300.462 64.45 299.262 67.5 299.262 71.5C299.262 74.3 300.162 76.65 301.962 78.55C303.862 80.35 306.162 81.85 308.862 83.05C311.662 84.15 315.562 85.45 320.562 86.95C327.362 88.95 332.912 90.95 337.212 92.95C341.512 94.95 345.212 97.95 348.312 101.95C351.412 105.95 352.962 111.2 352.962 117.7C352.962 123.3 351.512 128.5 348.612 133.3C345.712 138.1 341.462 141.95 335.862 144.85C330.262 147.65 323.612 149.05 315.912 149.05ZM438.368 128.05H396.668L389.768 148H367.718L405.368 43.15H429.818L467.468 148H445.268L438.368 128.05ZM432.668 111.25L417.518 67.45L402.368 111.25H432.668ZM538.541 148L515.441 107.2H505.541V148H484.541V43.3H523.841C531.941 43.3 538.841 44.75 544.541 47.65C550.241 50.45 554.491 54.3 557.291 59.2C560.191 64 561.641 69.4 561.641 75.4C561.641 82.3 559.641 88.55 555.641 94.15C551.641 99.65 545.691 103.45 537.791 105.55L562.841 148H538.541ZM505.541 91.45H523.091C528.791 91.45 533.041 90.1 535.841 87.4C538.641 84.6 540.041 80.75 540.041 75.85C540.041 71.05 538.641 67.35 535.841 64.75C533.041 62.05 528.791 60.7 523.091 60.7H505.541V91.45Z" fill="white"/>
</g>
<defs>
<clipPath id="clip0_11_474">
<rect width="570" height="153" fill="white"/>
</clipPath>
</defs>
</svg>
