<svg width="1360" height="264" viewBox="0 0 1360 264" fill="none" xmlns="http://www.w3.org/2000/svg">
<g filter="url(#filter0_d_23_2)">
<path d="M145.993 85.728C145.993 89.312 145.129 92.672 143.401 95.808C141.737 98.944 139.081 101.472 135.433 103.392C131.849 105.312 127.305 106.272 121.801 106.272H110.569V132H97.1295V64.992H121.801C126.985 64.992 131.401 65.888 135.049 67.68C138.697 69.472 141.417 71.936 143.209 75.072C145.065 78.208 145.993 81.76 145.993 85.728ZM121.225 95.424C124.937 95.424 127.689 94.592 129.481 92.928C131.273 91.2 132.169 88.8 132.169 85.728C132.169 79.2 128.521 75.936 121.225 75.936H110.569V95.424H121.225ZM179.152 132.864C174.032 132.864 169.424 131.744 165.328 129.504C161.232 127.2 158 123.968 155.632 119.808C153.328 115.648 152.176 110.848 152.176 105.408C152.176 99.968 153.36 95.168 155.728 91.008C158.16 86.848 161.456 83.648 165.616 81.408C169.776 79.104 174.416 77.952 179.536 77.952C184.656 77.952 189.296 79.104 193.456 81.408C197.616 83.648 200.88 86.848 203.248 91.008C205.68 95.168 206.896 99.968 206.896 105.408C206.896 110.848 205.648 115.648 203.152 119.808C200.72 123.968 197.392 127.2 193.168 129.504C189.008 131.744 184.336 132.864 179.152 132.864ZM179.152 121.152C181.584 121.152 183.856 120.576 185.968 119.424C188.144 118.208 189.872 116.416 191.152 114.048C192.432 111.68 193.072 108.8 193.072 105.408C193.072 100.352 191.728 96.48 189.04 93.792C186.416 91.04 183.184 89.664 179.344 89.664C175.504 89.664 172.272 91.04 169.648 93.792C167.088 96.48 165.808 100.352 165.808 105.408C165.808 110.464 167.056 114.368 169.552 117.12C172.112 119.808 175.312 121.152 179.152 121.152ZM229.042 120.96H252.754V132H213.778V121.152L237.01 89.856H213.874V78.816H252.466V89.664L229.042 120.96ZM292.633 78.048C298.969 78.048 304.089 80.064 307.993 84.096C311.897 88.064 313.849 93.632 313.849 100.8V132H300.409V102.624C300.409 98.4 299.353 95.168 297.241 92.928C295.129 90.624 292.249 89.472 288.601 89.472C284.889 89.472 281.945 90.624 279.769 92.928C277.657 95.168 276.601 98.4 276.601 102.624V132H263.161V78.816H276.601V85.44C278.393 83.136 280.665 81.344 283.417 80.064C286.233 78.72 289.305 78.048 292.633 78.048ZM323.173 105.216C323.173 99.84 324.229 95.072 326.341 90.912C328.517 86.752 331.429 83.552 335.077 81.312C338.789 79.072 342.917 77.952 347.461 77.952C351.429 77.952 354.885 78.752 357.829 80.352C360.837 81.952 363.237 83.968 365.029 86.4V78.816H378.565V132H365.029V124.224C363.301 126.72 360.901 128.8 357.829 130.464C354.821 132.064 351.333 132.864 347.365 132.864C342.885 132.864 338.789 131.712 335.077 129.408C331.429 127.104 328.517 123.872 326.341 119.712C324.229 115.488 323.173 110.656 323.173 105.216ZM365.029 105.408C365.029 102.144 364.389 99.36 363.109 97.056C361.829 94.688 360.101 92.896 357.925 91.68C355.749 90.4 353.413 89.76 350.917 89.76C348.421 89.76 346.117 90.368 344.005 91.584C341.893 92.8 340.165 94.592 338.821 96.96C337.541 99.264 336.901 102.016 336.901 105.216C336.901 108.416 337.541 111.232 338.821 113.664C340.165 116.032 341.893 117.856 344.005 119.136C346.181 120.416 348.485 121.056 350.917 121.056C353.413 121.056 355.749 120.448 357.925 119.232C360.101 117.952 361.829 116.16 363.109 113.856C364.389 111.488 365.029 108.672 365.029 105.408ZM398.508 72.48C396.076 72.48 394.06 71.744 392.46 70.272C390.924 68.736 390.156 66.848 390.156 64.608C390.156 62.368 390.924 60.512 392.46 59.04C394.06 57.504 396.076 56.736 398.508 56.736C400.876 56.736 402.828 57.504 404.364 59.04C405.9 60.512 406.668 62.368 406.668 64.608C406.668 66.848 405.9 68.736 404.364 70.272C402.828 71.744 400.876 72.48 398.508 72.48ZM405.132 140.736C405.132 146.624 403.66 150.848 400.716 153.408C397.836 156.032 393.676 157.344 388.236 157.344H382.284V145.92H386.124C388.172 145.92 389.612 145.504 390.444 144.672C391.276 143.904 391.692 142.624 391.692 140.832V78.816H405.132V140.736ZM461.638 132.864C457.286 132.864 453.382 132.096 449.926 130.56C446.47 128.96 443.718 126.816 441.67 124.128C439.686 121.44 438.598 118.464 438.406 115.2H451.942C452.198 117.248 453.19 118.944 454.918 120.288C456.71 121.632 458.918 122.304 461.542 122.304C464.102 122.304 466.086 121.792 467.494 120.768C468.966 119.744 469.702 118.432 469.702 116.832C469.702 115.104 468.806 113.824 467.014 112.992C465.286 112.096 462.502 111.136 458.662 110.112C454.694 109.152 451.43 108.16 448.87 107.136C446.374 106.112 444.198 104.544 442.342 102.432C440.55 100.32 439.654 97.472 439.654 93.888C439.654 90.944 440.486 88.256 442.15 85.824C443.878 83.392 446.31 81.472 449.446 80.064C452.646 78.656 456.39 77.952 460.678 77.952C467.014 77.952 472.07 79.552 475.846 82.752C479.622 85.888 481.702 90.144 482.086 95.52H469.222C469.03 93.408 468.134 91.744 466.534 90.528C464.998 89.248 462.918 88.608 460.294 88.608C457.862 88.608 455.974 89.056 454.63 89.952C453.35 90.848 452.71 92.096 452.71 93.696C452.71 95.488 453.606 96.864 455.398 97.824C457.19 98.72 459.974 99.648 463.75 100.608C467.59 101.568 470.758 102.56 473.254 103.584C475.75 104.608 477.894 106.208 479.686 108.384C481.542 110.496 482.502 113.312 482.566 116.832C482.566 119.904 481.702 122.656 479.974 125.088C478.31 127.52 475.878 129.44 472.678 130.848C469.542 132.192 465.862 132.864 461.638 132.864ZM544.478 78.816L511.55 157.152H497.246L508.766 130.656L487.454 78.816H502.526L516.254 115.968L530.174 78.816H544.478ZM572.075 132.864C567.723 132.864 563.819 132.096 560.363 130.56C556.907 128.96 554.155 126.816 552.107 124.128C550.123 121.44 549.035 118.464 548.843 115.2H562.379C562.635 117.248 563.627 118.944 565.355 120.288C567.147 121.632 569.355 122.304 571.979 122.304C574.539 122.304 576.523 121.792 577.931 120.768C579.403 119.744 580.139 118.432 580.139 116.832C580.139 115.104 579.243 113.824 577.451 112.992C575.723 112.096 572.939 111.136 569.099 110.112C565.131 109.152 561.867 108.16 559.307 107.136C556.811 106.112 554.635 104.544 552.779 102.432C550.987 100.32 550.091 97.472 550.091 93.888C550.091 90.944 550.923 88.256 552.587 85.824C554.315 83.392 556.747 81.472 559.883 80.064C563.083 78.656 566.827 77.952 571.115 77.952C577.451 77.952 582.507 79.552 586.283 82.752C590.059 85.888 592.139 90.144 592.523 95.52H579.659C579.467 93.408 578.571 91.744 576.971 90.528C575.435 89.248 573.355 88.608 570.731 88.608C568.299 88.608 566.411 89.056 565.067 89.952C563.787 90.848 563.147 92.096 563.147 93.696C563.147 95.488 564.043 96.864 565.835 97.824C567.627 98.72 570.411 99.648 574.187 100.608C578.027 101.568 581.195 102.56 583.691 103.584C586.187 104.608 588.331 106.208 590.123 108.384C591.979 110.496 592.939 113.312 593.003 116.832C593.003 119.904 592.139 122.656 590.411 125.088C588.747 127.52 586.315 129.44 583.115 130.848C579.979 132.192 576.299 132.864 572.075 132.864ZM619.684 89.856V115.584C619.684 117.376 620.1 118.688 620.932 119.52C621.828 120.288 623.3 120.672 625.348 120.672H631.588V132H623.14C611.812 132 606.148 126.496 606.148 115.488V89.856H599.812V78.816H606.148V65.664H619.684V78.816H631.588V89.856H619.684ZM690.694 104.256C690.694 106.176 690.566 107.904 690.31 109.44H651.43C651.75 113.28 653.094 116.288 655.462 118.464C657.83 120.64 660.742 121.728 664.198 121.728C669.19 121.728 672.742 119.584 674.854 115.296H689.35C687.814 120.416 684.87 124.64 680.518 127.968C676.166 131.232 670.822 132.864 664.486 132.864C659.366 132.864 654.758 131.744 650.662 129.504C646.63 127.2 643.462 123.968 641.158 119.808C638.918 115.648 637.798 110.848 637.798 105.408C637.798 99.904 638.918 95.072 641.158 90.912C643.398 86.752 646.534 83.552 650.566 81.312C654.598 79.072 659.238 77.952 664.486 77.952C669.542 77.952 674.054 79.04 678.022 81.216C682.054 83.392 685.158 86.496 687.334 90.528C689.574 94.496 690.694 99.072 690.694 104.256ZM676.774 100.416C676.71 96.96 675.462 94.208 673.03 92.16C670.598 90.048 667.622 88.992 664.102 88.992C660.774 88.992 657.958 90.016 655.654 92.064C653.414 94.048 652.038 96.832 651.526 100.416H676.774ZM766.552 78.048C773.08 78.048 778.328 80.064 782.296 84.096C786.328 88.064 788.344 93.632 788.344 100.8V132H774.904V102.624C774.904 98.464 773.848 95.296 771.736 93.12C769.624 90.88 766.744 89.76 763.096 89.76C759.448 89.76 756.536 90.88 754.36 93.12C752.248 95.296 751.192 98.464 751.192 102.624V132H737.752V102.624C737.752 98.464 736.696 95.296 734.584 93.12C732.472 90.88 729.592 89.76 725.944 89.76C722.232 89.76 719.288 90.88 717.112 93.12C715 95.296 713.944 98.464 713.944 102.624V132H700.504V78.816H713.944V85.248C715.672 83.008 717.88 81.248 720.568 79.968C723.32 78.688 726.328 78.048 729.592 78.048C733.752 78.048 737.464 78.944 740.728 80.736C743.992 82.464 746.52 84.96 748.312 88.224C750.04 85.152 752.536 82.688 755.8 80.832C759.128 78.976 762.712 78.048 766.552 78.048ZM886.648 78.98C886.648 83.0867 885.658 86.9367 883.678 90.53C881.771 94.1233 878.728 97.02 874.548 99.22C870.441 101.42 865.235 102.52 858.928 102.52H846.058V132H830.658V55.22H858.928C864.868 55.22 869.928 56.2467 874.108 58.3C878.288 60.3533 881.405 63.1767 883.458 66.77C885.585 70.3633 886.648 74.4333 886.648 78.98ZM858.268 90.09C862.521 90.09 865.675 89.1367 867.728 87.23C869.781 85.25 870.808 82.5 870.808 78.98C870.808 71.5 866.628 67.76 858.268 67.76H846.058V90.09H858.268ZM914.962 55.22V102.74C914.962 107.947 916.319 111.943 919.032 114.73C921.745 117.443 925.559 118.8 930.472 118.8C935.459 118.8 939.309 117.443 942.022 114.73C944.735 111.943 946.092 107.947 946.092 102.74V55.22H961.602V102.63C961.602 109.157 960.172 114.693 957.312 119.24C954.525 123.713 950.749 127.087 945.982 129.36C941.289 131.633 936.045 132.77 930.252 132.77C924.532 132.77 919.325 131.633 914.632 129.36C910.012 127.087 906.345 123.713 903.632 119.24C900.919 114.693 899.562 109.157 899.562 102.63V55.22H914.962ZM994.081 119.79H1019.38V132H978.681V55.22H994.081V119.79ZM1057.88 132.77C1052.53 132.77 1047.69 131.853 1043.36 130.02C1039.11 128.187 1035.73 125.547 1033.24 122.1C1030.75 118.653 1029.46 114.583 1029.39 109.89H1045.89C1046.11 113.043 1047.21 115.537 1049.19 117.37C1051.24 119.203 1054.03 120.12 1057.55 120.12C1061.14 120.12 1063.97 119.277 1066.02 117.59C1068.07 115.83 1069.1 113.557 1069.1 110.77C1069.1 108.497 1068.4 106.627 1067.01 105.16C1065.62 103.693 1063.86 102.557 1061.73 101.75C1059.68 100.87 1056.82 99.9167 1053.15 98.89C1048.16 97.4233 1044.09 95.9933 1040.94 94.6C1037.86 93.1333 1035.18 90.97 1032.91 88.11C1030.71 85.1767 1029.61 81.29 1029.61 76.45C1029.61 71.9033 1030.75 67.9433 1033.02 64.57C1035.29 61.1967 1038.48 58.63 1042.59 56.87C1046.7 55.0367 1051.39 54.12 1056.67 54.12C1064.59 54.12 1071.01 56.0633 1075.92 59.95C1080.91 63.7633 1083.66 69.1167 1084.17 76.01H1067.23C1067.08 73.37 1065.95 71.2067 1063.82 69.52C1061.77 67.76 1059.02 66.88 1055.57 66.88C1052.56 66.88 1050.14 67.65 1048.31 69.19C1046.55 70.73 1045.67 72.9667 1045.67 75.9C1045.67 77.9533 1046.33 79.6767 1047.65 81.07C1049.04 82.39 1050.73 83.49 1052.71 84.37C1054.76 85.1767 1057.62 86.13 1061.29 87.23C1066.28 88.6967 1070.35 90.1633 1073.5 91.63C1076.65 93.0967 1079.37 95.2967 1081.64 98.23C1083.91 101.163 1085.05 105.013 1085.05 109.78C1085.05 113.887 1083.99 117.7 1081.86 121.22C1079.73 124.74 1076.62 127.563 1072.51 129.69C1068.4 131.743 1063.53 132.77 1057.88 132.77ZM1147.68 117.37H1117.1L1112.04 132H1095.87L1123.48 55.11H1141.41L1169.02 132H1152.74L1147.68 117.37ZM1143.5 105.05L1132.39 72.93L1121.28 105.05H1143.5ZM1221.14 132L1204.2 102.08H1196.94V132H1181.54V55.22H1210.36C1216.3 55.22 1221.36 56.2833 1225.54 58.41C1229.72 60.4633 1232.84 63.2867 1234.89 66.88C1237.02 70.4 1238.08 74.36 1238.08 78.76C1238.08 83.82 1236.61 88.4033 1233.68 92.51C1230.75 96.5433 1226.38 99.33 1220.59 100.87L1238.96 132H1221.14ZM1196.94 90.53H1209.81C1213.99 90.53 1217.11 89.54 1219.16 87.56C1221.21 85.5067 1222.24 82.6833 1222.24 79.09C1222.24 75.57 1221.21 72.8567 1219.16 70.95C1217.11 68.97 1213.99 67.98 1209.81 67.98H1196.94V90.53Z" fill="white"/>
</g>
<g filter="url(#filter1_d_23_2)">
<path d="M122.207 172.464V178.864H111.672V212H103.742V178.864H93.2062V172.464H122.207ZM157.164 195.63C157.164 196.763 157.088 197.783 156.937 198.689H133.997C134.186 200.955 134.979 202.73 136.376 204.013C137.773 205.297 139.491 205.939 141.53 205.939C144.476 205.939 146.572 204.674 147.818 202.144H156.371C155.464 205.165 153.727 207.657 151.16 209.621C148.592 211.547 145.439 212.51 141.7 212.51C138.679 212.51 135.961 211.849 133.544 210.527C131.165 209.168 129.296 207.261 127.936 204.806C126.615 202.352 125.954 199.52 125.954 196.31C125.954 193.063 126.615 190.212 127.936 187.757C129.258 185.303 131.108 183.415 133.487 182.093C135.866 180.771 138.604 180.11 141.7 180.11C144.684 180.11 147.346 180.752 149.687 182.036C152.066 183.32 153.897 185.152 155.181 187.531C156.503 189.872 157.164 192.572 157.164 195.63ZM148.951 193.365C148.913 191.326 148.176 189.702 146.742 188.493C145.307 187.247 143.551 186.624 141.474 186.624C139.51 186.624 137.849 187.228 136.489 188.437C135.168 189.607 134.356 191.25 134.054 193.365H148.951ZM160.913 196.31C160.913 193.063 161.574 190.23 162.895 187.814C164.217 185.359 166.048 183.471 168.39 182.15C170.731 180.79 173.412 180.11 176.433 180.11C180.322 180.11 183.532 181.092 186.062 183.056C188.63 184.982 190.348 187.7 191.216 191.212H182.663C182.21 189.853 181.436 188.796 180.341 188.04C179.284 187.247 177.962 186.851 176.376 186.851C174.11 186.851 172.317 187.682 170.995 189.343C169.673 190.967 169.013 193.289 169.013 196.31C169.013 199.293 169.673 201.616 170.995 203.277C172.317 204.901 174.11 205.713 176.376 205.713C179.586 205.713 181.682 204.278 182.663 201.408H191.216C190.348 204.806 188.63 207.506 186.062 209.508C183.494 211.509 180.284 212.51 176.433 212.51C173.412 212.51 170.731 211.849 168.39 210.527C166.048 209.168 164.217 207.28 162.895 204.863C161.574 202.409 160.913 199.558 160.913 196.31ZM214.698 180.167C217.077 180.167 219.192 180.696 221.042 181.753C222.892 182.773 224.327 184.302 225.347 186.341C226.404 188.342 226.933 190.759 226.933 193.591V212H219.003V194.667C219.003 192.175 218.38 190.268 217.134 188.947C215.888 187.587 214.188 186.907 212.036 186.907C209.846 186.907 208.109 187.587 206.825 188.947C205.579 190.268 204.956 192.175 204.956 194.667V212H197.026V170.085H204.956V184.529C205.975 183.169 207.335 182.112 209.034 181.357C210.733 180.564 212.621 180.167 214.698 180.167ZM251.863 180.167C255.601 180.167 258.622 181.357 260.926 183.736C263.229 186.077 264.381 189.362 264.381 193.591V212H256.451V194.667C256.451 192.175 255.828 190.268 254.582 188.947C253.336 187.587 251.636 186.907 249.484 186.907C247.294 186.907 245.557 187.587 244.273 188.947C243.027 190.268 242.404 192.175 242.404 194.667V212H234.474V180.62H242.404V184.529C243.461 183.169 244.802 182.112 246.425 181.357C248.087 180.564 249.899 180.167 251.863 180.167ZM285.856 212.51C282.835 212.51 280.116 211.849 277.699 210.527C275.283 209.168 273.376 207.261 271.978 204.806C270.619 202.352 269.939 199.52 269.939 196.31C269.939 193.1 270.638 190.268 272.035 187.814C273.47 185.359 275.415 183.471 277.869 182.15C280.324 180.79 283.061 180.11 286.082 180.11C289.103 180.11 291.841 180.79 294.295 182.15C296.75 183.471 298.676 185.359 300.073 187.814C301.508 190.268 302.225 193.1 302.225 196.31C302.225 199.52 301.489 202.352 300.016 204.806C298.581 207.261 296.618 209.168 294.126 210.527C291.671 211.849 288.914 212.51 285.856 212.51ZM285.856 205.599C287.291 205.599 288.631 205.26 289.877 204.58C291.161 203.862 292.181 202.805 292.936 201.408C293.691 200.011 294.069 198.311 294.069 196.31C294.069 193.327 293.276 191.042 291.69 189.456C290.142 187.833 288.235 187.021 285.969 187.021C283.703 187.021 281.796 187.833 280.248 189.456C278.738 191.042 277.983 193.327 277.983 196.31C277.983 199.293 278.719 201.597 280.192 203.22C281.702 204.806 283.59 205.599 285.856 205.599ZM315.972 170.085V212H308.042V170.085H315.972ZM337.741 212.51C334.72 212.51 332.001 211.849 329.584 210.527C327.168 209.168 325.261 207.261 323.864 204.806C322.504 202.352 321.824 199.52 321.824 196.31C321.824 193.1 322.523 190.268 323.92 187.814C325.355 185.359 327.3 183.471 329.754 182.15C332.209 180.79 334.947 180.11 337.968 180.11C340.988 180.11 343.726 180.79 346.181 182.15C348.635 183.471 350.561 185.359 351.958 187.814C353.393 190.268 354.111 193.1 354.111 196.31C354.111 199.52 353.374 202.352 351.902 204.806C350.467 207.261 348.503 209.168 346.011 210.527C343.556 211.849 340.8 212.51 337.741 212.51ZM337.741 205.599C339.176 205.599 340.516 205.26 341.763 204.58C343.046 203.862 344.066 202.805 344.821 201.408C345.576 200.011 345.954 198.311 345.954 196.31C345.954 193.327 345.161 191.042 343.575 189.456C342.027 187.833 340.12 187.021 337.854 187.021C335.589 187.021 333.682 187.833 332.133 189.456C330.623 191.042 329.868 193.327 329.868 196.31C329.868 199.293 330.604 201.597 332.077 203.22C333.587 204.806 335.475 205.599 337.741 205.599ZM372.219 180.11C374.56 180.11 376.618 180.582 378.393 181.526C380.168 182.433 381.565 183.622 382.584 185.095V180.62H390.571V212.227C390.571 215.134 389.986 217.721 388.815 219.987C387.644 222.29 385.889 224.103 383.547 225.424C381.206 226.784 378.374 227.463 375.051 227.463C370.595 227.463 366.932 226.425 364.062 224.348C361.23 222.271 359.625 219.439 359.248 215.852H367.121C367.536 217.287 368.424 218.419 369.783 219.25C371.18 220.119 372.861 220.553 374.824 220.553C377.128 220.553 378.997 219.854 380.432 218.457C381.867 217.098 382.584 215.021 382.584 212.227V207.355C381.565 208.828 380.149 210.055 378.336 211.037C376.561 212.019 374.522 212.51 372.219 212.51C369.576 212.51 367.159 211.83 364.969 210.471C362.778 209.111 361.041 207.204 359.758 204.75C358.511 202.258 357.888 199.407 357.888 196.197C357.888 193.025 358.511 190.212 359.758 187.757C361.041 185.303 362.76 183.415 364.912 182.093C367.102 180.771 369.538 180.11 372.219 180.11ZM382.584 196.31C382.584 194.384 382.207 192.742 381.452 191.382C380.696 189.985 379.677 188.928 378.393 188.21C377.109 187.455 375.731 187.077 374.258 187.077C372.785 187.077 371.426 187.436 370.18 188.154C368.934 188.871 367.914 189.928 367.121 191.326C366.366 192.685 365.988 194.309 365.988 196.197C365.988 198.085 366.366 199.746 367.121 201.181C367.914 202.579 368.934 203.655 370.18 204.41C371.464 205.165 372.823 205.543 374.258 205.543C375.731 205.543 377.109 205.184 378.393 204.467C379.677 203.711 380.696 202.654 381.452 201.295C382.207 199.897 382.584 198.236 382.584 196.31ZM402.337 176.882C400.94 176.882 399.77 176.448 398.826 175.579C397.919 174.673 397.466 173.559 397.466 172.237C397.466 170.915 397.919 169.82 398.826 168.952C399.77 168.046 400.94 167.592 402.337 167.592C403.735 167.592 404.886 168.046 405.793 168.952C406.737 169.82 407.209 170.915 407.209 172.237C407.209 173.559 406.737 174.673 405.793 175.579C404.886 176.448 403.735 176.882 402.337 176.882ZM406.246 180.62V212H398.316V180.62H406.246ZM412.041 196.197C412.041 193.025 412.664 190.212 413.911 187.757C415.195 185.303 416.913 183.415 419.065 182.093C421.255 180.771 423.691 180.11 426.372 180.11C428.713 180.11 430.752 180.582 432.489 181.526C434.264 182.471 435.68 183.66 436.737 185.095V180.62H444.724V212H436.737V207.412C435.718 208.885 434.302 210.112 432.489 211.094C430.714 212.038 428.656 212.51 426.315 212.51C423.672 212.51 421.255 211.83 419.065 210.471C416.913 209.111 415.195 207.204 413.911 204.75C412.664 202.258 412.041 199.407 412.041 196.197ZM436.737 196.31C436.737 194.384 436.36 192.742 435.605 191.382C434.849 189.985 433.83 188.928 432.546 188.21C431.262 187.455 429.884 187.077 428.411 187.077C426.938 187.077 425.579 187.436 424.333 188.154C423.087 188.871 422.067 189.928 421.274 191.326C420.519 192.685 420.141 194.309 420.141 196.197C420.141 198.085 420.519 199.746 421.274 201.181C422.067 202.579 423.087 203.655 424.333 204.41C425.617 205.165 426.976 205.543 428.411 205.543C429.884 205.543 431.262 205.184 432.546 204.467C433.83 203.711 434.849 202.654 435.605 201.295C436.36 199.897 436.737 198.236 436.737 196.31ZM461.135 203.674L454.508 219.59H449.41L453.092 203.674H461.135ZM498.926 212L488.277 198.632V212H480.348V170.085H488.277V193.931L498.813 180.62H509.122L495.301 196.367L509.235 212H498.926ZM522.658 187.134V202.314C522.658 203.371 522.904 204.146 523.395 204.637C523.923 205.09 524.792 205.316 526 205.316H529.682V212H524.698C518.014 212 514.672 208.753 514.672 202.258V187.134H510.933V180.62H514.672V172.86H522.658V180.62H529.682V187.134H522.658ZM549.32 212.51C546.299 212.51 543.58 211.849 541.163 210.527C538.746 209.168 536.839 207.261 535.442 204.806C534.083 202.352 533.403 199.52 533.403 196.31C533.403 193.1 534.102 190.268 535.499 187.814C536.934 185.359 538.879 183.471 541.333 182.15C543.788 180.79 546.525 180.11 549.546 180.11C552.567 180.11 555.305 180.79 557.759 182.15C560.214 183.471 562.14 185.359 563.537 187.814C564.972 190.268 565.689 193.1 565.689 196.31C565.689 199.52 564.953 202.352 563.48 204.806C562.045 207.261 560.082 209.168 557.589 210.527C555.135 211.849 552.378 212.51 549.32 212.51ZM549.32 205.599C550.755 205.599 552.095 205.26 553.341 204.58C554.625 203.862 555.645 202.805 556.4 201.408C557.155 200.011 557.533 198.311 557.533 196.31C557.533 193.327 556.74 191.042 555.154 189.456C553.606 187.833 551.699 187.021 549.433 187.021C547.167 187.021 545.26 187.833 543.712 189.456C542.202 191.042 541.446 193.327 541.446 196.31C541.446 199.293 542.183 201.597 543.655 203.22C545.166 204.806 547.054 205.599 549.32 205.599ZM556.06 172.067L543.032 178.015V172.35L556.06 165.61V172.067ZM579.436 185.491C580.456 183.83 581.777 182.527 583.401 181.583C585.063 180.639 586.951 180.167 589.065 180.167V188.493H586.969C584.477 188.493 582.589 189.079 581.305 190.249C580.059 191.42 579.436 193.459 579.436 196.367V212H571.506V180.62H579.436V185.491ZM592.367 196.197C592.367 193.025 592.99 190.212 594.236 187.757C595.52 185.303 597.239 183.415 599.391 182.093C601.581 180.771 604.017 180.11 606.698 180.11C609.039 180.11 611.078 180.582 612.815 181.526C614.59 182.471 616.006 183.66 617.063 185.095V180.62H625.05V212H617.063V207.412C616.044 208.885 614.628 210.112 612.815 211.094C611.04 212.038 608.982 212.51 606.641 212.51C603.998 212.51 601.581 211.83 599.391 210.471C597.239 209.111 595.52 207.204 594.236 204.75C592.99 202.258 592.367 199.407 592.367 196.197ZM617.063 196.31C617.063 194.384 616.686 192.742 615.93 191.382C615.175 189.985 614.156 188.928 612.872 188.21C611.588 187.455 610.21 187.077 608.737 187.077C607.264 187.077 605.905 187.436 604.659 188.154C603.413 188.871 602.393 189.928 601.6 191.326C600.845 192.685 600.467 194.309 600.467 196.197C600.467 198.085 600.845 199.746 601.6 201.181C602.393 202.579 603.413 203.655 604.659 204.41C605.943 205.165 607.302 205.543 608.737 205.543C610.21 205.543 611.588 205.184 612.872 204.467C614.156 203.711 615.175 202.654 615.93 201.295C616.686 199.897 617.063 198.236 617.063 196.31ZM663.681 180.167C667.419 180.167 670.44 181.357 672.744 183.736C675.047 186.077 676.199 189.362 676.199 193.591V212H668.269V194.667C668.269 192.175 667.646 190.268 666.4 188.947C665.153 187.587 663.454 186.907 661.302 186.907C659.112 186.907 657.375 187.587 656.091 188.947C654.845 190.268 654.222 192.175 654.222 194.667V212H646.292V180.62H654.222V184.529C655.279 183.169 656.619 182.112 658.243 181.357C659.905 180.564 661.717 180.167 663.681 180.167ZM681.701 196.197C681.701 193.025 682.324 190.212 683.57 187.757C684.854 185.303 686.572 183.415 688.724 182.093C690.914 180.771 693.35 180.11 696.031 180.11C698.372 180.11 700.411 180.582 702.148 181.526C703.923 182.471 705.339 183.66 706.397 185.095V180.62H714.383V212H706.397V207.412C705.377 208.885 703.961 210.112 702.148 211.094C700.374 212.038 698.316 212.51 695.974 212.51C693.331 212.51 690.914 211.83 688.724 210.471C686.572 209.111 684.854 207.204 683.57 204.75C682.324 202.258 681.701 199.407 681.701 196.197ZM706.397 196.31C706.397 194.384 706.019 192.742 705.264 191.382C704.508 189.985 703.489 188.928 702.205 188.21C700.921 187.455 699.543 187.077 698.07 187.077C696.597 187.077 695.238 187.436 693.992 188.154C692.746 188.871 691.726 189.928 690.933 191.326C690.178 192.685 689.8 194.309 689.8 196.197C689.8 198.085 690.178 199.746 690.933 201.181C691.726 202.579 692.746 203.655 693.992 204.41C695.276 205.165 696.635 205.543 698.07 205.543C699.543 205.543 700.921 205.184 702.205 204.467C703.489 203.711 704.508 202.654 705.264 201.295C706.019 199.897 706.397 198.236 706.397 196.31ZM730.058 185.152C731.078 183.717 732.475 182.527 734.249 181.583C736.062 180.601 738.12 180.11 740.423 180.11C743.105 180.11 745.521 180.771 747.674 182.093C749.864 183.415 751.582 185.303 752.828 187.757C754.112 190.174 754.754 192.987 754.754 196.197C754.754 199.407 754.112 202.258 752.828 204.75C751.582 207.204 749.864 209.111 747.674 210.471C745.521 211.83 743.105 212.51 740.423 212.51C738.12 212.51 736.081 212.038 734.306 211.094C732.569 210.15 731.153 208.96 730.058 207.525V226.954H722.128V180.62H730.058V185.152ZM746.654 196.197C746.654 194.309 746.258 192.685 745.465 191.326C744.709 189.928 743.69 188.871 742.406 188.154C741.16 187.436 739.8 187.077 738.328 187.077C736.893 187.077 735.533 187.455 734.249 188.21C733.003 188.928 731.984 189.985 731.191 191.382C730.436 192.779 730.058 194.422 730.058 196.31C730.058 198.198 730.436 199.841 731.191 201.238C731.984 202.635 733.003 203.711 734.249 204.467C735.533 205.184 736.893 205.543 738.328 205.543C739.8 205.543 741.16 205.165 742.406 204.41C743.69 203.655 744.709 202.579 745.465 201.181C746.258 199.784 746.654 198.123 746.654 196.197ZM789.687 195.63C789.687 196.763 789.612 197.783 789.461 198.689H766.521C766.709 200.955 767.502 202.73 768.9 204.013C770.297 205.297 772.015 205.939 774.054 205.939C776.999 205.939 779.095 204.674 780.341 202.144H788.894C788.177 204.523 786.95 206.581 785.212 208.318C783.475 210.055 781.304 211.264 778.699 211.943L777.396 212.623C776.112 213.265 775.206 213.869 774.677 214.436C774.148 215.04 773.884 215.682 773.884 216.361C773.884 217.041 774.129 217.589 774.62 218.004C775.149 218.419 775.848 218.627 776.716 218.627C777.925 218.627 779.265 218.344 780.738 217.778V222.535C779.114 223.102 777.434 223.385 775.697 223.385C773.469 223.385 771.581 222.856 770.032 221.799C768.522 220.78 767.767 219.212 767.767 217.098C767.767 215.172 768.541 213.492 770.089 212.057C766.577 211.226 763.764 209.413 761.649 206.619C759.535 203.825 758.477 200.388 758.477 196.31C758.477 193.063 759.138 190.212 760.46 187.757C761.781 185.303 763.632 183.415 766.011 182.093C768.39 180.771 771.127 180.11 774.224 180.11C777.207 180.11 779.869 180.752 782.21 182.036C784.589 183.32 786.421 185.152 787.705 187.531C789.026 189.872 789.687 192.572 789.687 195.63ZM781.474 193.365C781.436 191.326 780.7 189.702 779.265 188.493C777.83 187.247 776.074 186.624 773.997 186.624C772.034 186.624 770.372 187.228 769.013 188.437C767.691 189.607 766.879 191.25 766.577 193.365H781.474ZM793.436 196.197C793.436 193.025 794.059 190.212 795.305 187.757C796.589 185.303 798.326 183.415 800.516 182.093C802.707 180.771 805.142 180.11 807.823 180.11C809.862 180.11 811.807 180.564 813.657 181.47C815.508 182.338 816.981 183.509 818.076 184.982V170.085H826.119V212H818.076V207.355C817.094 208.904 815.715 210.15 813.941 211.094C812.166 212.038 810.108 212.51 807.767 212.51C805.123 212.51 802.707 211.83 800.516 210.471C798.326 209.111 796.589 207.204 795.305 204.75C794.059 202.258 793.436 199.407 793.436 196.197ZM818.132 196.31C818.132 194.384 817.755 192.742 816.999 191.382C816.244 189.985 815.225 188.928 813.941 188.21C812.657 187.455 811.279 187.077 809.806 187.077C808.333 187.077 806.974 187.436 805.728 188.154C804.481 188.871 803.462 189.928 802.669 191.326C801.914 192.685 801.536 194.309 801.536 196.197C801.536 198.085 801.914 199.746 802.669 201.181C803.462 202.579 804.481 203.655 805.728 204.41C807.011 205.165 808.371 205.543 809.806 205.543C811.279 205.543 812.657 205.184 813.941 204.467C815.225 203.711 816.244 202.654 816.999 201.295C817.755 199.897 818.132 198.236 818.132 196.31ZM841.114 205.486H855.105V212H832.108V205.599L845.815 187.134H832.164V180.62H854.935V187.021L841.114 205.486ZM859.205 196.197C859.205 193.025 859.828 190.212 861.075 187.757C862.358 185.303 864.077 183.415 866.229 182.093C868.419 180.771 870.855 180.11 873.536 180.11C875.877 180.11 877.916 180.582 879.653 181.526C881.428 182.471 882.844 183.66 883.901 185.095V180.62H891.888V212H883.901V207.412C882.882 208.885 881.466 210.112 879.653 211.094C877.878 212.038 875.82 212.51 873.479 212.51C870.836 212.51 868.419 211.83 866.229 210.471C864.077 209.111 862.358 207.204 861.075 204.75C859.828 202.258 859.205 199.407 859.205 196.197ZM883.901 196.31C883.901 194.384 883.524 192.742 882.769 191.382C882.013 189.985 880.994 188.928 879.71 188.21C878.426 187.455 877.048 187.077 875.575 187.077C874.102 187.077 872.743 187.436 871.497 188.154C870.251 188.871 869.231 189.928 868.438 191.326C867.683 192.685 867.305 194.309 867.305 196.197C867.305 198.085 867.683 199.746 868.438 201.181C869.231 202.579 870.251 203.655 871.497 204.41C872.781 205.165 874.14 205.543 875.575 205.543C877.048 205.543 878.426 205.184 879.71 204.467C880.994 203.711 882.013 202.654 882.769 201.295C883.524 199.897 883.901 198.236 883.901 196.31ZM940.035 172.464V178.864H929.499V212H921.569V178.864H911.034V172.464H940.035ZM989.322 180.62L980.146 212H971.593L965.872 190.079L960.151 212H951.542L942.309 180.62H950.352L955.903 204.523L961.907 180.62H970.29L976.181 204.467L981.732 180.62H989.322ZM1007.55 212.51C1004.53 212.51 1001.81 211.849 999.39 210.527C996.973 209.168 995.066 207.261 993.669 204.806C992.31 202.352 991.63 199.52 991.63 196.31C991.63 193.1 992.329 190.268 993.726 187.814C995.161 185.359 997.105 183.471 999.56 182.15C1002.01 180.79 1004.75 180.11 1007.77 180.11C1010.79 180.11 1013.53 180.79 1015.99 182.15C1018.44 183.471 1020.37 185.359 1021.76 187.814C1023.2 190.268 1023.92 193.1 1023.92 196.31C1023.92 199.52 1023.18 202.352 1021.71 204.806C1020.27 207.261 1018.31 209.168 1015.82 210.527C1013.36 211.849 1010.61 212.51 1007.55 212.51ZM1007.55 205.599C1008.98 205.599 1010.32 205.26 1011.57 204.58C1012.85 203.862 1013.87 202.805 1014.63 201.408C1015.38 200.011 1015.76 198.311 1015.76 196.31C1015.76 193.327 1014.97 191.042 1013.38 189.456C1011.83 187.833 1009.93 187.021 1007.66 187.021C1005.39 187.021 1003.49 187.833 1001.94 189.456C1000.43 191.042 999.673 193.327 999.673 196.31C999.673 199.293 1000.41 201.597 1001.88 203.22C1003.39 204.806 1005.28 205.599 1007.55 205.599ZM1014.29 172.067L1001.26 178.015V172.35L1014.29 165.61V172.067ZM1033.75 176.882C1032.32 176.882 1031.13 176.448 1030.19 175.579C1029.28 174.673 1028.83 173.559 1028.83 172.237C1028.83 170.915 1029.28 169.82 1030.19 168.952C1031.13 168.046 1032.32 167.592 1033.75 167.592C1035.15 167.592 1036.3 168.046 1037.21 168.952C1038.12 169.82 1038.57 170.915 1038.57 172.237C1038.57 173.559 1038.12 174.673 1037.21 175.579C1036.3 176.448 1035.15 176.882 1033.75 176.882ZM1037.66 217.154C1037.66 220.629 1036.79 223.121 1035.06 224.631C1033.36 226.179 1030.9 226.954 1027.69 226.954H1024.18V220.213H1026.45C1027.66 220.213 1028.51 219.968 1029 219.477C1029.49 219.024 1029.73 218.268 1029.73 217.211V180.62H1037.66V217.154ZM1066.92 185.208C1067.94 183.698 1069.34 182.471 1071.12 181.526C1072.93 180.582 1074.99 180.11 1077.29 180.11C1079.97 180.11 1082.39 180.771 1084.54 182.093C1086.73 183.415 1088.45 185.303 1089.69 187.757C1090.98 190.174 1091.62 192.987 1091.62 196.197C1091.62 199.407 1090.98 202.258 1089.69 204.75C1088.45 207.204 1086.73 209.111 1084.54 210.471C1082.39 211.83 1079.97 212.51 1077.29 212.51C1074.95 212.51 1072.89 212.057 1071.12 211.15C1069.38 210.206 1067.98 208.998 1066.92 207.525V212H1058.99V170.085H1066.92V185.208ZM1083.52 196.197C1083.52 194.309 1083.12 192.685 1082.33 191.326C1081.58 189.928 1080.56 188.871 1079.27 188.154C1078.03 187.436 1076.67 187.077 1075.19 187.077C1073.76 187.077 1072.4 187.455 1071.12 188.21C1069.87 188.928 1068.85 189.985 1068.06 191.382C1067.3 192.779 1066.92 194.422 1066.92 196.31C1066.92 198.198 1067.3 199.841 1068.06 201.238C1068.85 202.635 1069.87 203.711 1071.12 204.467C1072.4 205.184 1073.76 205.543 1075.19 205.543C1076.67 205.543 1078.03 205.165 1079.27 204.41C1080.56 203.655 1081.58 202.579 1082.33 201.181C1083.12 199.784 1083.52 198.123 1083.52 196.197ZM1101.4 176.882C1100.01 176.882 1098.84 176.448 1097.89 175.579C1096.99 174.673 1096.53 173.559 1096.53 172.237C1096.53 170.915 1096.99 169.82 1097.89 168.952C1098.84 168.046 1100.01 167.592 1101.4 167.592C1102.8 167.592 1103.95 168.046 1104.86 168.952C1105.8 169.82 1106.28 170.915 1106.28 172.237C1106.28 173.559 1105.8 174.673 1104.86 175.579C1103.95 176.448 1102.8 176.882 1101.4 176.882ZM1105.31 180.62V212H1097.38V180.62H1105.31ZM1120.4 205.486H1134.39V212H1111.39V205.599L1125.1 187.134H1111.45V180.62H1134.22V187.021L1120.4 205.486ZM1157.92 180.167C1161.66 180.167 1164.68 181.357 1166.98 183.736C1169.28 186.077 1170.44 189.362 1170.44 193.591V212H1162.51V194.667C1162.51 192.175 1161.88 190.268 1160.64 188.947C1159.39 187.587 1157.69 186.907 1155.54 186.907C1153.35 186.907 1151.61 187.587 1150.33 188.947C1149.08 190.268 1148.46 192.175 1148.46 194.667V212H1140.53V180.62H1148.46V184.529C1149.52 183.169 1150.86 182.112 1152.48 181.357C1154.14 180.564 1155.95 180.167 1157.92 180.167ZM1207.15 195.63C1207.15 196.763 1207.07 197.783 1206.92 198.689H1183.98C1184.17 200.955 1184.96 202.73 1186.36 204.013C1187.76 205.297 1189.47 205.939 1191.51 205.939C1194.46 205.939 1196.56 204.674 1197.8 202.144H1206.35C1205.45 205.165 1203.71 207.657 1201.14 209.621C1198.58 211.547 1195.42 212.51 1191.68 212.51C1188.66 212.51 1185.94 211.849 1183.53 210.527C1181.15 209.168 1179.28 207.261 1177.92 204.806C1176.6 202.352 1175.94 199.52 1175.94 196.31C1175.94 193.063 1176.6 190.212 1177.92 187.757C1179.24 185.303 1181.09 183.415 1183.47 182.093C1185.85 180.771 1188.59 180.11 1191.68 180.11C1194.67 180.11 1197.33 180.752 1199.67 182.036C1202.05 183.32 1203.88 185.152 1205.16 187.531C1206.49 189.872 1207.15 192.572 1207.15 195.63ZM1198.93 193.365C1198.9 191.326 1198.16 189.702 1196.73 188.493C1195.29 187.247 1193.53 186.624 1191.46 186.624C1189.49 186.624 1187.83 187.228 1186.47 188.437C1185.15 189.607 1184.34 191.25 1184.04 193.365H1198.93ZM1224.94 212.51C1222.38 212.51 1220.07 212.057 1218.03 211.15C1215.99 210.206 1214.37 208.941 1213.16 207.355C1211.99 205.769 1211.35 204.013 1211.24 202.088H1219.22C1219.37 203.296 1219.96 204.297 1220.98 205.09C1222.04 205.883 1223.34 206.279 1224.89 206.279C1226.4 206.279 1227.57 205.977 1228.4 205.373C1229.27 204.769 1229.7 203.995 1229.7 203.051C1229.7 202.031 1229.17 201.276 1228.12 200.785C1227.1 200.256 1225.45 199.69 1223.19 199.086C1220.85 198.519 1218.92 197.934 1217.41 197.33C1215.94 196.725 1214.65 195.8 1213.56 194.554C1212.5 193.308 1211.97 191.628 1211.97 189.513C1211.97 187.776 1212.46 186.19 1213.45 184.755C1214.46 183.32 1215.9 182.187 1217.75 181.357C1219.64 180.526 1221.85 180.11 1224.38 180.11C1228.12 180.11 1231.1 181.054 1233.33 182.943C1235.55 184.793 1236.78 187.304 1237.01 190.476H1229.42C1229.3 189.23 1228.78 188.248 1227.83 187.531C1226.93 186.775 1225.7 186.398 1224.15 186.398C1222.72 186.398 1221.6 186.662 1220.81 187.191C1220.05 187.719 1219.68 188.456 1219.68 189.4C1219.68 190.457 1220.2 191.269 1221.26 191.835C1222.32 192.364 1223.96 192.912 1226.19 193.478C1228.46 194.044 1230.32 194.63 1231.8 195.234C1233.27 195.838 1234.53 196.782 1235.59 198.066C1236.69 199.312 1237.25 200.974 1237.29 203.051C1237.29 204.863 1236.78 206.487 1235.76 207.922C1234.78 209.357 1233.35 210.49 1231.46 211.32C1229.61 212.113 1227.44 212.51 1224.94 212.51ZM1247.31 212.396C1245.88 212.396 1244.69 211.962 1243.74 211.094C1242.84 210.187 1242.38 209.073 1242.38 207.752C1242.38 206.43 1242.84 205.335 1243.74 204.467C1244.69 203.56 1245.88 203.107 1247.31 203.107C1248.71 203.107 1249.86 203.56 1250.77 204.467C1251.67 205.335 1252.13 206.43 1252.13 207.752C1252.13 209.073 1251.67 210.187 1250.77 211.094C1249.86 211.962 1248.71 212.396 1247.31 212.396Z" fill="white"/>
</g>
<defs>
<filter id="filter0_d_23_2" x="93.1295" y="54.12" width="1149.83" height="111.224" filterUnits="userSpaceOnUse" color-interpolation-filters="sRGB">
<feFlood flood-opacity="0" result="BackgroundImageFix"/>
<feColorMatrix in="SourceAlpha" type="matrix" values="0 0 0 0 0 0 0 0 0 0 0 0 0 0 0 0 0 0 127 0" result="hardAlpha"/>
<feOffset dy="4"/>
<feGaussianBlur stdDeviation="2"/>
<feComposite in2="hardAlpha" operator="out"/>
<feColorMatrix type="matrix" values="0 0 0 0 0 0 0 0 0 0 0 0 0 0 0 0 0 0 0.25 0"/>
<feBlend mode="normal" in2="BackgroundImageFix" result="effect1_dropShadow_23_2"/>
<feBlend mode="normal" in="SourceGraphic" in2="effect1_dropShadow_23_2" result="shape"/>
</filter>
<filter id="filter1_d_23_2" x="89.2062" y="165.61" width="1166.92" height="69.8534" filterUnits="userSpaceOnUse" color-interpolation-filters="sRGB">
<feFlood flood-opacity="0" result="BackgroundImageFix"/>
<feColorMatrix in="SourceAlpha" type="matrix" values="0 0 0 0 0 0 0 0 0 0 0 0 0 0 0 0 0 0 127 0" result="hardAlpha"/>
<feOffset dy="4"/>
<feGaussianBlur stdDeviation="2"/>
<feComposite in2="hardAlpha" operator="out"/>
<feColorMatrix type="matrix" values="0 0 0 0 0 0 0 0 0 0 0 0 0 0 0 0 0 0 0.25 0"/>
<feBlend mode="normal" in2="BackgroundImageFix" result="effect1_dropShadow_23_2"/>
<feBlend mode="normal" in="SourceGraphic" in2="effect1_dropShadow_23_2" result="shape"/>
</filter>
</defs>
</svg>
